<mxfile host="app.diagrams.net" agent="Mozilla/5.0 (Windows NT 10.0; Win64; x64) AppleWebKit/537.36 (KHTML, like Gecko) Chrome/140.0.0.0 Safari/537.36" version="28.2.3">
  <diagram name="Trang-1" id="cbTT_oCZveinLUtYp-on">
    <mxGraphModel dx="1389" dy="831" grid="1" gridSize="10" guides="1" tooltips="1" connect="1" arrows="1" fold="1" page="1" pageScale="1" pageWidth="827" pageHeight="1169" math="0" shadow="0">
      <root>
        <mxCell id="0" />
        <mxCell id="1" parent="0" />
        <mxCell id="QWl_LzwsoqFeQQw_bhoO-11" style="edgeStyle=orthogonalEdgeStyle;rounded=0;orthogonalLoop=1;jettySize=auto;html=1;exitX=1;exitY=0.5;exitDx=0;exitDy=0;" edge="1" parent="1" source="QWl_LzwsoqFeQQw_bhoO-1">
          <mxGeometry relative="1" as="geometry">
            <mxPoint x="400" y="170.33333333333337" as="targetPoint" />
          </mxGeometry>
        </mxCell>
        <mxCell id="QWl_LzwsoqFeQQw_bhoO-1" value="" style="rounded=0;whiteSpace=wrap;html=1;" vertex="1" parent="1">
          <mxGeometry x="30" y="20" width="280" height="300" as="geometry" />
        </mxCell>
        <mxCell id="QWl_LzwsoqFeQQw_bhoO-3" value="" style="rounded=0;whiteSpace=wrap;html=1;" vertex="1" parent="1">
          <mxGeometry x="50" y="40" width="230" height="30" as="geometry" />
        </mxCell>
        <mxCell id="QWl_LzwsoqFeQQw_bhoO-4" value="input (nhập dữ liệu)&amp;nbsp;&amp;nbsp;" style="text;html=1;align=center;verticalAlign=middle;whiteSpace=wrap;rounded=0;" vertex="1" parent="1">
          <mxGeometry x="80" y="40" width="190" height="30" as="geometry" />
        </mxCell>
        <mxCell id="QWl_LzwsoqFeQQw_bhoO-5" value="&lt;p data-start=&quot;122&quot; data-end=&quot;283&quot;&gt;Nhân viên căng tin nhập thông tin đơn đặt hàng của khách (số lượng món ăn, loại món, thời gian đặt) hoặc dữ liệu về nguyên liệu nhập kho (số lượng, ngày nhập).&lt;/p&gt;" style="text;html=1;align=left;verticalAlign=middle;whiteSpace=wrap;rounded=0;" vertex="1" parent="1">
          <mxGeometry x="60" y="90" width="200" height="210" as="geometry" />
        </mxCell>
        <mxCell id="QWl_LzwsoqFeQQw_bhoO-24" style="edgeStyle=orthogonalEdgeStyle;rounded=0;orthogonalLoop=1;jettySize=auto;html=1;exitX=0.5;exitY=1;exitDx=0;exitDy=0;" edge="1" parent="1" source="QWl_LzwsoqFeQQw_bhoO-6">
          <mxGeometry relative="1" as="geometry">
            <mxPoint x="569.6666666666667" y="390" as="targetPoint" />
          </mxGeometry>
        </mxCell>
        <mxCell id="QWl_LzwsoqFeQQw_bhoO-6" value="" style="rounded=0;whiteSpace=wrap;html=1;" vertex="1" parent="1">
          <mxGeometry x="430" y="20" width="280" height="300" as="geometry" />
        </mxCell>
        <mxCell id="QWl_LzwsoqFeQQw_bhoO-8" value="" style="rounded=0;whiteSpace=wrap;html=1;" vertex="1" parent="1">
          <mxGeometry x="460" y="40" width="220" height="30" as="geometry" />
        </mxCell>
        <mxCell id="QWl_LzwsoqFeQQw_bhoO-9" value="&amp;nbsp;Processing (xử lí dữ liệu)" style="text;html=1;align=center;verticalAlign=middle;whiteSpace=wrap;rounded=0;" vertex="1" parent="1">
          <mxGeometry x="460" y="40" width="220" height="30" as="geometry" />
        </mxCell>
        <mxCell id="QWl_LzwsoqFeQQw_bhoO-10" value="&lt;p data-end=&quot;512&quot; data-start=&quot;331&quot;&gt;Hệ thống kiểm tra số nguyên liệu còn trong kho, tính tổng số món đã đặt, tính chi phí đơn hàng hoặc tự động tính toán lượng nguyên liệu cần bổ sung dựa trên số lượng đơn đặt hàng.&lt;/p&gt;" style="text;html=1;align=left;verticalAlign=middle;whiteSpace=wrap;rounded=0;" vertex="1" parent="1">
          <mxGeometry x="470" y="110" width="200" height="150" as="geometry" />
        </mxCell>
        <mxCell id="QWl_LzwsoqFeQQw_bhoO-25" style="edgeStyle=orthogonalEdgeStyle;rounded=0;orthogonalLoop=1;jettySize=auto;html=1;exitX=0;exitY=0.5;exitDx=0;exitDy=0;" edge="1" parent="1" source="QWl_LzwsoqFeQQw_bhoO-12">
          <mxGeometry relative="1" as="geometry">
            <mxPoint x="330" y="550" as="targetPoint" />
          </mxGeometry>
        </mxCell>
        <mxCell id="QWl_LzwsoqFeQQw_bhoO-12" value="" style="rounded=0;whiteSpace=wrap;html=1;" vertex="1" parent="1">
          <mxGeometry x="440" y="400" width="280" height="300" as="geometry" />
        </mxCell>
        <mxCell id="QWl_LzwsoqFeQQw_bhoO-15" value="" style="rounded=0;whiteSpace=wrap;html=1;" vertex="1" parent="1">
          <mxGeometry x="470" y="420" width="220" height="30" as="geometry" />
        </mxCell>
        <mxCell id="QWl_LzwsoqFeQQw_bhoO-17" value="Storage (Lưu trữ)" style="text;html=1;align=center;verticalAlign=middle;whiteSpace=wrap;rounded=0;" vertex="1" parent="1">
          <mxGeometry x="470" y="420" width="220" height="30" as="geometry" />
        </mxCell>
        <mxCell id="QWl_LzwsoqFeQQw_bhoO-18" value="Tất cả thông tin về đơn hàng, tồn kho nguyên liệu, lịch sử nhập xuất được lưu vào hệ thống để quản lý và theo dõi dễ dàng." style="text;html=1;align=left;verticalAlign=middle;whiteSpace=wrap;rounded=0;" vertex="1" parent="1">
          <mxGeometry x="470" y="490" width="220" height="130" as="geometry" />
        </mxCell>
        <mxCell id="QWl_LzwsoqFeQQw_bhoO-19" value="" style="rounded=0;whiteSpace=wrap;html=1;" vertex="1" parent="1">
          <mxGeometry x="30" y="400" width="280" height="300" as="geometry" />
        </mxCell>
        <mxCell id="QWl_LzwsoqFeQQw_bhoO-20" value="" style="rounded=0;whiteSpace=wrap;html=1;" vertex="1" parent="1">
          <mxGeometry x="45" y="420" width="240" height="30" as="geometry" />
        </mxCell>
        <mxCell id="QWl_LzwsoqFeQQw_bhoO-21" value="Output (xuất dữ liệu)" style="text;html=1;align=center;verticalAlign=middle;whiteSpace=wrap;rounded=0;" vertex="1" parent="1">
          <mxGeometry x="45" y="420" width="235" height="30" as="geometry" />
        </mxCell>
        <mxCell id="QWl_LzwsoqFeQQw_bhoO-22" value="Hệ thống in phiếu đặt món cho bếp, báo cáo tồn kho nguyên liệu, hoặc hiển thị báo cáo doanh thu trong ngày, giúp quản lý dễ dàng kiểm soát hoạt động căng tin." style="text;html=1;align=left;verticalAlign=middle;whiteSpace=wrap;rounded=0;" vertex="1" parent="1">
          <mxGeometry x="60" y="480" width="210" height="170" as="geometry" />
        </mxCell>
      </root>
    </mxGraphModel>
  </diagram>
</mxfile>
